<svg width="24" height="24" viewBox="0 0 24 24" fill="none" xmlns="http://www.w3.org/2000/svg">
<path d="M10.5037 24L9.00748 20.4389C8.70823 20.3491 8.4389 20.1995 8.16958 20.0499L4.60848 21.5461L2.45387 19.3915L3.95012 15.8304C3.8005 15.5312 3.6808 15.2918 3.5611 14.9925L0 13.4963V10.5037L3.5611 9.00748C3.6808 8.70823 3.8005 8.46883 3.95012 8.16958L2.45387 4.60848L4.60848 2.45387L8.16958 3.95013C8.4389 3.83043 8.70823 3.6808 9.00748 3.5611L10.5037 0H13.4963L14.9925 3.5611C15.2618 3.6808 15.5611 3.8005 15.8304 3.95013L19.3915 2.45387L21.5461 4.60848L20.0499 8.16958C20.1696 8.4389 20.3192 8.73816 20.4389 9.00748L24 10.5037V13.4963L20.4389 14.9925C20.3491 15.2618 20.1995 15.5611 20.0499 15.8304L21.5461 19.3915L19.3915 21.5461L15.8304 20.0499C15.5611 20.1696 15.2618 20.3192 14.9925 20.4389L13.4963 24H10.5037ZM12 16.5187C14.4838 16.5187 16.4888 14.5137 16.4888 12.0299C16.4888 9.54614 14.4838 7.54115 12 7.54115C9.51621 7.54115 7.51122 9.54614 7.51122 12.0299C7.51122 14.5137 9.51621 16.5187 12 16.5187Z" fill="#777777"/>
</svg>
