<svg width="26" height="26" viewBox="0 0 26 26" fill="none" xmlns="http://www.w3.org/2000/svg">
<path d="M4.0625 11.375C3.84701 11.375 3.64035 11.2894 3.48798 11.137C3.3356 10.9847 3.25 10.778 3.25 10.5625V4.06415C3.25 3.84866 3.3356 3.642 3.48798 3.48962C3.64035 3.33725 3.84701 3.25165 4.0625 3.25165H10.5625C10.778 3.25165 10.9847 3.33725 11.137 3.48962C11.2894 3.642 11.375 3.84866 11.375 4.06415V10.5625C11.375 10.778 11.2894 10.9847 11.137 11.137C10.9847 11.2894 10.778 11.375 10.5625 11.375H4.0625ZM15.4375 11.375C15.222 11.375 15.0153 11.2894 14.863 11.137C14.7106 10.9847 14.625 10.778 14.625 10.5625V4.06415C14.625 3.84866 14.7106 3.642 14.863 3.48962C15.0153 3.33725 15.222 3.25165 15.4375 3.25165H21.9359C22.1514 3.25165 22.358 3.33725 22.5104 3.48962C22.6628 3.642 22.7484 3.84866 22.7484 4.06415V10.5625C22.7484 10.778 22.6628 10.9847 22.5104 11.137C22.358 11.2894 22.1514 11.375 21.9359 11.375H15.4375ZM4.0625 22.75C3.84701 22.75 3.64035 22.6644 3.48798 22.512C3.3356 22.3597 3.25 22.153 3.25 21.9375V15.4375C3.25 15.222 3.3356 15.0154 3.48798 14.863C3.64035 14.7106 3.84701 14.625 4.0625 14.625H10.5625C10.778 14.625 10.9847 14.7106 11.137 14.863C11.2894 15.0154 11.375 15.222 11.375 15.4375V21.9375C11.375 22.153 11.2894 22.3597 11.137 22.512C10.9847 22.6644 10.778 22.75 10.5625 22.75H4.0625ZM15.4375 22.75C15.222 22.75 15.0153 22.6644 14.863 22.512C14.7106 22.3597 14.625 22.153 14.625 21.9375V15.4375C14.625 15.222 14.7106 15.0154 14.863 14.863C15.0153 14.7106 15.222 14.625 15.4375 14.625H21.9359C22.1514 14.625 22.358 14.7106 22.5104 14.863C22.6628 15.0154 22.7484 15.222 22.7484 15.4375V21.9375C22.7484 22.153 22.6628 22.3597 22.5104 22.512C22.358 22.6644 22.1514 22.75 21.9359 22.75H15.4375Z" fill="#777777"/>
</svg>
