<svg width="31" height="32" viewBox="0 0 31 32" fill="none" xmlns="http://www.w3.org/2000/svg">
<mask id="mask0_1_68" style="mask-type:luminance" maskUnits="userSpaceOnUse" x="0" y="0" width="31" height="32">
<path d="M30.6395 12.9767H15.8605V19.1047H24.3674C23.5744 22.9977 20.2581 25.2326 15.8605 25.2326C10.6698 25.2326 6.48837 21.0512 6.48837 15.8605C6.48837 10.6698 10.6698 6.48837 15.8605 6.48837C18.0953 6.48837 20.1139 7.28141 21.7 8.57909L26.314 3.96512C23.5023 1.51395 19.8977 0 15.8605 0C7.06512 0 0 7.06512 0 15.8605C0 24.6558 7.06512 31.7209 15.8605 31.7209C23.7907 31.7209 31 25.9535 31 15.8605C31 14.9233 30.8558 13.914 30.6395 12.9767Z" fill="white"/>
</mask>
<g mask="url(#mask0_1_68)">
<path d="M-1.44185 25.2326V6.48837L10.814 15.8605L-1.44185 25.2326Z" fill="#FBBC05"/>
</g>
<mask id="mask1_1_68" style="mask-type:luminance" maskUnits="userSpaceOnUse" x="0" y="0" width="31" height="32">
<path d="M30.6395 12.9767H15.8605V19.1047H24.3674C23.5744 22.9977 20.2581 25.2326 15.8605 25.2326C10.6698 25.2326 6.48837 21.0512 6.48837 15.8605C6.48837 10.6698 10.6698 6.48837 15.8605 6.48837C18.0953 6.48837 20.1139 7.28141 21.7 8.57909L26.314 3.96512C23.5023 1.51395 19.8977 0 15.8605 0C7.06512 0 0 7.06512 0 15.8605C0 24.6558 7.06512 31.7209 15.8605 31.7209C23.7907 31.7209 31 25.9535 31 15.8605C31 14.9233 30.8558 13.914 30.6395 12.9767Z" fill="white"/>
</mask>
<g mask="url(#mask1_1_68)">
<path d="M-1.44185 6.48839L10.814 15.8605L15.8605 11.4628L33.1628 8.65118V-1.44185H-1.44185V6.48839Z" fill="#EA4335"/>
</g>
<mask id="mask2_1_68" style="mask-type:luminance" maskUnits="userSpaceOnUse" x="0" y="0" width="31" height="32">
<path d="M30.6395 12.9767H15.8605V19.1047H24.3674C23.5744 22.9977 20.2581 25.2326 15.8605 25.2326C10.6698 25.2326 6.48837 21.0512 6.48837 15.8605C6.48837 10.6698 10.6698 6.48837 15.8605 6.48837C18.0953 6.48837 20.1139 7.28141 21.7 8.57909L26.314 3.96512C23.5023 1.51395 19.8977 0 15.8605 0C7.06512 0 0 7.06512 0 15.8605C0 24.6558 7.06512 31.7209 15.8605 31.7209C23.7907 31.7209 31 25.9535 31 15.8605C31 14.9233 30.8558 13.914 30.6395 12.9767Z" fill="white"/>
</mask>
<g mask="url(#mask2_1_68)">
<path d="M-1.44185 25.2326L20.1861 8.65118L25.8814 9.37211L33.1628 -1.44185V33.1628H-1.44185V25.2326Z" fill="#34A853"/>
</g>
<mask id="mask3_1_68" style="mask-type:luminance" maskUnits="userSpaceOnUse" x="0" y="0" width="31" height="32">
<path d="M30.6395 12.9767H15.8605V19.1047H24.3674C23.5744 22.9977 20.2581 25.2326 15.8605 25.2326C10.6698 25.2326 6.48837 21.0512 6.48837 15.8605C6.48837 10.6698 10.6698 6.48837 15.8605 6.48837C18.0953 6.48837 20.1139 7.28141 21.7 8.57909L26.314 3.96512C23.5023 1.51395 19.8977 0 15.8605 0C7.06512 0 0 7.06512 0 15.8605C0 24.6558 7.06512 31.7209 15.8605 31.7209C23.7907 31.7209 31 25.9535 31 15.8605C31 14.9233 30.8558 13.914 30.6395 12.9767Z" fill="white"/>
</mask>
<g mask="url(#mask3_1_68)">
<path d="M33.1628 33.1628L10.8139 15.8605L7.93022 13.6977L33.1628 6.48837V33.1628Z" fill="#4285F4"/>
</g>
</svg>
